# xmcd
#
# Track frame offsets: 
#        150
#        12952
#        26335
#        37135
#        49670
#        60532
#        73037
#        86242
#        99300
#        112555
#        126557
#        139812
#        150910
#        164597
#        176275
#        188842
#        202037
#        214262
#        229842
#
# Disc length: 3226 seconds
#
# Revision: 1
# Processed by: cddbd v1.5.2PL0 Copyright (c) Steve Scherf et al.
# Submitted via: ExactAudioCopyFreeDBPlugin 1.0
#
DISCID=040c9813
DTITLE=Amos Milburn - The Complete Aladdin Recordings of Amos Milburn 
DTITLE=[Mosaic box set]
DYEAR=1994
DGENRE=Rhythm and Blues
TTITLE0=I'm Gonna Tell My Mama
TTITLE1=Bad, Bad Whiskey
TTITLE2=Everybody Clap Hands
TTITLE3=Tears, Tears, Tears
TTITLE4=Glory of Love
TTITLE5=I Love You Anyway
TTITLE6=Ain't Nothing Shaking
TTITLE7=Real Crazy
TTITLE8=That Was Your Last Mistake-Goodbye
TTITLE9=Women, Women
TTITLE10=Just One More Drink
TTITLE11=Thinking and Drinking
TTITLE12=Put Something in My Hand
TTITLE13=Trouble in Mind
TTITLE14=Squeeze My Blues Away
TTITLE15=Flying Home
TTITLE16=Roll Mr. Jelly
TTITLE17=I Won't Be a Fool Anymore
TTITLE18=Long, Long Day
EXTD=
EXTT0=
EXTT1=
EXTT2=
EXTT3=
EXTT4=
EXTT5=
EXTT6=
EXTT7=
EXTT8=
EXTT9=
EXTT10=
EXTT11=
EXTT12=
EXTT13=
EXTT14=
EXTT15=
EXTT16=
EXTT17=
EXTT18=
PLAYORDER=
